<?xml version="1.0" encoding="utf-8"?>
<!-- Generator: Adobe Illustrator 27.0.1, SVG Export Plug-In . SVG Version: 6.00 Build 0)  -->
<svg version="1.1" id="Layer_1" xmlns="http://www.w3.org/2000/svg" xmlns:xlink="http://www.w3.org/1999/xlink" x="0px" y="0px"
	 viewBox="0 0 150 150" style="enable-background:new 0 0 150 150;" xml:space="preserve">
<style type="text/css">
	.st0{fill-rule:evenodd;clip-rule:evenodd;fill:#000000;}
</style>
<g id="Page-1">
	<g id="Dribbble-Light-Preview" transform="translate(-340.000000, -7439.000000)">
		<g id="icons" transform="translate(56.000000, 160.000000)">
			<path id="instagram-_x5B__x23_167_x5D_" class="st0" d="M328,7279.9c-12.2,0.6-22.8,3.5-31.3,12c-8.6,8.6-11.5,19.2-12.1,31.3
				c-0.3,7.5-2.4,64.5,3.5,79.5c3.9,10.1,11.7,17.8,21.8,21.8c4.7,1.8,10.2,3.1,18.1,3.5c66.5,3,91.1,1.4,101.5-25.2
				c1.8-4.7,3.1-10.1,3.5-18.1c3-66.6-0.5-81.1-12.1-92.6C411.7,7282.8,400.9,7276.6,328,7279.9 M328.6,7414.5
				c-7.3-0.3-11.2-1.5-13.9-2.6c-6.6-2.6-11.6-7.5-14.2-14.1c-4.4-11.4-3-65.3-2.6-74c0.4-8.5,2.1-16.4,8.1-22.4
				c7.5-7.4,17.1-11.1,82.8-8.1c8.6,0.4,16.4,2.1,22.4,8.1c7.5,7.4,11.2,17.2,8.1,82.6c-0.3,7.3-1.5,11.2-2.6,13.8
				C410.2,7415.1,394.7,7417.5,328.6,7414.5 M389.7,7314.2c0,4.9,4,8.9,9,8.9c4.9,0,9-4,9-8.9c0-4.9-4-8.9-9-8.9
				C393.7,7305.2,389.7,7309.2,389.7,7314.2 M320.5,7353.9c0,21.1,17.2,38.2,38.3,38.2s38.3-17.1,38.3-38.2
				c0-21.1-17.2-38.2-38.3-38.2S320.5,7332.8,320.5,7353.9 M333.9,7353.9c0-13.7,11.1-24.8,24.9-24.8c13.7,0,24.9,11.1,24.9,24.8
				c0,13.7-11.1,24.8-24.9,24.8C345.1,7378.7,333.9,7367.6,333.9,7353.9"/>
		</g>
	</g>
</g>
</svg>
